# Blender v2.78 (sub 0) OBJ File: 'Bench.blend'
# www.blender.org
mtllib Bench.mtl
o Cube.007
v -0.969090 1.041727 -0.342941
v -0.969090 1.198082 -0.390673
v -0.969090 1.021057 -0.410651
v -0.969090 1.177412 -0.458382
v 0.975361 1.041727 -0.342941
v 0.975361 1.198082 -0.390673
v 0.975361 1.021057 -0.410651
v 0.975361 1.177412 -0.458382
vt 1.0000 0.0000
vt 0.0000 1.0000
vt 0.0000 0.0000
vt 1.0000 0.0000
vt 0.0000 1.0000
vt 0.0000 0.0000
vt 0.0000 0.0000
vt 1.0000 1.0000
vt 0.0000 1.0000
vt 1.0000 0.0000
vt 0.0000 1.0000
vt 0.0000 0.0000
vt 1.0000 0.0000
vt 0.0000 1.0000
vt 0.0000 0.0000
vt 1.0000 1.0000
vt 1.0000 1.0000
vt 1.0000 0.0000
vt 1.0000 1.0000
vt 1.0000 1.0000
vn -1.0000 0.0000 0.0000
vn 0.0000 -0.2920 -0.9564
vn 1.0000 0.0000 0.0000
vn 0.0000 0.2920 0.9564
vn 0.0000 -0.9564 0.2920
vn 0.0000 0.9564 -0.2920
usemtl Wood
s off
f 2/1/1 3/2/1 1/3/1
f 4/4/2 7/5/2 3/6/2
f 7/7/3 6/8/3 5/9/3
f 6/10/4 1/11/4 5/12/4
f 7/13/5 1/11/5 3/6/5
f 4/4/6 6/14/6 8/15/6
f 2/1/1 4/16/1 3/2/1
f 4/4/2 8/17/2 7/5/2
f 7/7/3 8/18/3 6/8/3
f 6/10/4 2/19/4 1/11/4
f 7/13/5 5/20/5 1/11/5
f 4/4/6 2/19/6 6/14/6
o Cube.005_Cube.006
v -0.970260 0.610244 -0.106628
v -0.970260 0.581857 -0.267622
v -0.970260 0.540526 -0.094335
v -0.970260 0.512138 -0.255329
v 0.974192 0.610244 -0.106628
v 0.974192 0.581857 -0.267622
v 0.974192 0.540526 -0.094335
v 0.974192 0.512138 -0.255329
vt 1.0000 0.0000
vt 0.0000 1.0000
vt 0.0000 0.0000
vt 1.0000 0.0000
vt 0.0000 1.0000
vt 0.0000 0.0000
vt 0.0000 0.0000
vt 1.0000 1.0000
vt 0.0000 1.0000
vt 1.0000 0.0000
vt 0.0000 1.0000
vt 0.0000 0.0000
vt 1.0000 0.0000
vt 0.0000 1.0000
vt 0.0000 0.0000
vt 1.0000 1.0000
vt 1.0000 1.0000
vt 1.0000 0.0000
vt 1.0000 1.0000
vt 1.0000 1.0000
vn -1.0000 0.0000 0.0000
vn 0.0000 -0.9848 0.1736
vn 1.0000 0.0000 0.0000
vn 0.0000 0.9848 -0.1736
vn 0.0000 0.1736 0.9848
vn 0.0000 -0.1736 -0.9848
usemtl Wood
s off
f 10/21/7 11/22/7 9/23/7
f 12/24/8 15/25/8 11/26/8
f 15/27/9 14/28/9 13/29/9
f 14/30/10 9/31/10 13/32/10
f 15/33/11 9/31/11 11/26/11
f 12/24/12 14/34/12 16/35/12
f 10/21/7 12/36/7 11/22/7
f 12/24/8 16/37/8 15/25/8
f 15/27/9 16/38/9 14/28/9
f 14/30/10 10/39/10 9/31/10
f 15/33/11 13/40/11 9/31/11
f 12/24/12 10/39/12 14/34/12
o Cube.004_Cube.005
v -0.970260 0.634213 0.067146
v -0.970260 0.605825 -0.093848
v -0.970260 0.564495 0.079439
v -0.970260 0.536107 -0.081555
v 0.974192 0.634213 0.067146
v 0.974192 0.605825 -0.093848
v 0.974192 0.564495 0.079439
v 0.974192 0.536107 -0.081555
vt 1.0000 0.0000
vt 0.0000 1.0000
vt 0.0000 0.0000
vt 1.0000 0.0000
vt 0.0000 1.0000
vt 0.0000 0.0000
vt 1.0000 0.0000
vt 0.0000 1.0000
vt 0.0000 0.0000
vt 1.0000 0.0000
vt 0.0000 1.0000
vt 0.0000 0.0000
vt 1.0000 0.0000
vt 0.0000 1.0000
vt 0.0000 0.0000
vt 1.0000 1.0000
vt 1.0000 1.0000
vt 1.0000 1.0000
vt 1.0000 1.0000
vt 1.0000 1.0000
vn -1.0000 0.0000 0.0000
vn 0.0000 -0.9848 0.1736
vn 1.0000 0.0000 0.0000
vn 0.0000 0.9848 -0.1736
vn 0.0000 0.1736 0.9848
vn 0.0000 -0.1736 -0.9848
usemtl Wood
s off
f 18/41/13 19/42/13 17/43/13
f 20/44/14 23/45/14 19/46/14
f 24/47/15 21/48/15 23/49/15
f 22/50/16 17/51/16 21/52/16
f 23/53/17 17/51/17 19/46/17
f 20/44/18 22/54/18 24/55/18
f 18/41/13 20/56/13 19/42/13
f 20/44/14 24/57/14 23/45/14
f 24/47/15 22/58/15 21/48/15
f 22/50/16 18/59/16 17/51/16
f 23/53/17 21/60/17 17/51/17
f 20/44/18 18/59/18 22/54/18
o Cube.003_Cube.004
v -0.970260 0.661178 0.243916
v -0.970260 0.632790 0.082922
v -0.970260 0.591460 0.256209
v -0.970260 0.563072 0.095215
v 0.974192 0.661178 0.243916
v 0.974192 0.632790 0.082922
v 0.974192 0.591460 0.256209
v 0.974192 0.563072 0.095215
vt 1.0000 0.0000
vt 0.0000 1.0000
vt 0.0000 0.0000
vt 1.0000 0.0000
vt 0.0000 1.0000
vt 0.0000 0.0000
vt 1.0000 0.0000
vt 0.0000 1.0000
vt 0.0000 0.0000
vt 1.0000 0.0000
vt 0.0000 1.0000
vt 0.0000 0.0000
vt 1.0000 0.0000
vt 0.0000 1.0000
vt 0.0000 0.0000
vt 1.0000 1.0000
vt 1.0000 1.0000
vt 1.0000 1.0000
vt 1.0000 1.0000
vt 1.0000 1.0000
vn -1.0000 0.0000 0.0000
vn 0.0000 -0.9848 0.1736
vn 1.0000 0.0000 0.0000
vn 0.0000 0.9848 -0.1736
vn 0.0000 0.1736 0.9848
vn 0.0000 -0.1736 -0.9848
usemtl Wood
s off
f 26/61/19 27/62/19 25/63/19
f 28/64/20 31/65/20 27/66/20
f 32/67/21 29/68/21 31/69/21
f 30/70/22 25/71/22 29/72/22
f 31/73/23 25/71/23 27/66/23
f 28/64/24 30/74/24 32/75/24
f 26/61/19 28/76/19 27/62/19
f 28/64/20 32/77/20 31/65/20
f 32/67/21 30/78/21 29/68/21
f 30/70/22 26/79/22 25/71/22
f 31/73/23 29/80/23 25/71/23
f 28/64/24 26/79/24 30/74/24
o Cube.002_Cube.003
v -0.970260 0.696239 -0.237480
v -0.970260 0.852777 -0.284607
v -0.970260 0.675831 -0.305268
v -0.970260 0.832368 -0.352396
v 0.974192 0.696239 -0.237480
v 0.974192 0.852777 -0.284607
v 0.974192 0.675831 -0.305268
v 0.974192 0.832368 -0.352396
vt 1.0000 0.0000
vt 0.0000 1.0000
vt 0.0000 0.0000
vt 1.0000 0.0000
vt 0.0000 1.0000
vt 0.0000 0.0000
vt 0.0000 0.0000
vt 1.0000 1.0000
vt 0.0000 1.0000
vt 1.0000 0.0000
vt 0.0000 1.0000
vt 0.0000 0.0000
vt 1.0000 0.0000
vt 0.0000 1.0000
vt 0.0000 0.0000
vt 1.0000 1.0000
vt 1.0000 1.0000
vt 1.0000 0.0000
vt 1.0000 1.0000
vt 1.0000 1.0000
vn -1.0000 -0.0000 0.0000
vn 0.0000 -0.2883 -0.9575
vn 1.0000 -0.0000 0.0000
vn 0.0000 0.2883 0.9575
vn 0.0000 -0.9575 0.2883
vn 0.0000 0.9575 -0.2883
usemtl Wood
s off
f 34/81/25 35/82/25 33/83/25
f 36/84/26 39/85/26 35/86/26
f 39/87/27 38/88/27 37/89/27
f 38/90/28 33/91/28 37/92/28
f 39/93/29 33/91/29 35/86/29
f 36/84/30 38/94/30 40/95/30
f 34/81/25 36/96/25 35/82/25
f 36/84/26 40/97/26 39/85/26
f 39/87/27 40/98/27 38/88/27
f 38/90/28 34/99/28 33/91/28
f 39/93/29 37/100/29 33/91/29
f 36/84/30 34/99/30 38/94/30
o Cube.001_Cube.002
v -0.970260 0.871302 -0.290540
v -0.970260 1.027389 -0.339140
v -0.970260 0.850256 -0.358133
v -0.970260 1.006343 -0.406733
v 0.974192 0.871302 -0.290540
v 0.974192 1.027389 -0.339140
v 0.974192 0.850256 -0.358133
v 0.974192 1.006343 -0.406733
vt 1.0000 0.0000
vt 0.0000 1.0000
vt 0.0000 0.0000
vt 1.0000 0.0000
vt 0.0000 1.0000
vt 0.0000 0.0000
vt 0.0000 0.0000
vt 1.0000 1.0000
vt 0.0000 1.0000
vt 1.0000 0.0000
vt 0.0000 1.0000
vt 0.0000 0.0000
vt 1.0000 0.0000
vt 0.0000 1.0000
vt 0.0000 0.0000
vt 1.0000 1.0000
vt 1.0000 1.0000
vt 1.0000 0.0000
vt 1.0000 1.0000
vt 1.0000 1.0000
vn -1.0000 0.0000 0.0000
vn 0.0000 -0.2973 -0.9548
vn 1.0000 -0.0000 0.0000
vn 0.0000 0.2973 0.9548
vn 0.0000 -0.9548 0.2973
vn 0.0000 0.9548 -0.2973
usemtl Wood
s off
f 42/101/31 43/102/31 41/103/31
f 44/104/32 47/105/32 43/106/32
f 47/107/33 46/108/33 45/109/33
f 46/110/34 41/111/34 45/112/34
f 47/113/35 41/111/35 43/106/35
f 44/104/36 46/114/36 48/115/36
f 42/101/31 44/116/31 43/102/31
f 44/104/32 48/117/32 47/105/32
f 47/107/33 48/118/33 46/108/33
f 46/110/34 42/119/34 41/111/34
f 47/113/35 45/120/35 41/111/35
f 44/104/36 42/119/36 46/114/36
o Cube
v -0.970260 1.214475 -0.395342
v -0.970260 1.370558 -0.443955
v -0.970260 1.193423 -0.462933
v -0.970260 1.349506 -0.511547
v 0.974192 1.214475 -0.395342
v 0.974192 1.370558 -0.443955
v 0.974192 1.193423 -0.462933
v 0.974192 1.349506 -0.511547
vt 1.0000 0.0000
vt 0.0000 1.0000
vt 0.0000 0.0000
vt 1.0000 0.0000
vt 0.0000 1.0000
vt 0.0000 0.0000
vt 0.0000 0.0000
vt 1.0000 1.0000
vt 0.0000 1.0000
vt 1.0000 0.0000
vt 0.0000 1.0000
vt 0.0000 0.0000
vt 1.0000 0.0000
vt 0.0000 1.0000
vt 0.0000 0.0000
vt 1.0000 1.0000
vt 1.0000 1.0000
vt 1.0000 0.0000
vt 1.0000 1.0000
vt 1.0000 1.0000
vn -1.0000 0.0000 0.0000
vn 0.0000 -0.2974 -0.9548
vn 1.0000 0.0000 0.0000
vn 0.0000 0.2974 0.9548
vn 0.0000 -0.9548 0.2974
vn 0.0000 0.9548 -0.2974
usemtl Wood
s off
f 50/121/37 51/122/37 49/123/37
f 52/124/38 55/125/38 51/126/38
f 55/127/39 54/128/39 53/129/39
f 54/130/40 49/131/40 53/132/40
f 55/133/41 49/131/41 51/126/41
f 52/124/42 54/134/42 56/135/42
f 50/121/37 52/136/37 51/122/37
f 52/124/38 56/137/38 55/125/38
f 55/127/39 56/138/39 54/128/39
f 54/130/40 50/139/40 49/131/40
f 55/133/41 53/140/41 49/131/41
f 52/124/42 50/139/42 54/134/42
o Diff.001_Circle.002
v 0.977435 0.328117 -0.117323
v 0.977057 0.328119 0.096391
v 0.976829 0.328461 -0.010466
v 0.977724 0.143032 0.203248
v 0.977724 0.249890 0.174615
v 0.977724 0.005187 -0.164561
v 0.977724 0.006476 0.144918
v 0.977724 0.036174 -0.195548
v 0.977724 0.036174 0.174616
v 0.977724 0.143032 -0.224180
v 0.977724 0.249890 -0.195548
v 0.977724 1.368288 -0.747997
v 0.977724 1.424610 -0.735000
v 0.977724 0.584115 0.259792
v 0.976939 0.538291 0.370438
v 0.975043 0.427661 0.416269
v 0.977724 1.407280 -0.531375
v 0.977724 0.532188 -0.262764
v 0.977724 1.459269 -0.574700
v 0.977724 0.345831 -0.427397
v 0.977724 0.003568 -0.553038
v 0.977724 0.007900 0.486749
v 0.977724 0.241852 0.430427
v 0.977724 0.423815 0.417430
v 0.855534 0.328130 -0.117364
v 0.855156 0.328132 0.096350
v 0.854928 0.328474 -0.010507
v 0.855823 0.143045 0.203207
v 0.855823 0.249903 0.174575
v 0.855823 0.005200 -0.164602
v 0.855823 0.006489 0.144877
v 0.855823 0.036187 -0.195589
v 0.855823 0.036187 0.174575
v 0.855823 0.143045 -0.224221
v 0.855823 0.249903 -0.195589
v 0.855823 1.368301 -0.748038
v 0.855823 1.424623 -0.735041
v 0.855823 0.584129 0.259751
v 0.855038 0.538304 0.370397
v 0.853142 0.427674 0.416228
v 0.855823 1.407293 -0.531416
v 0.855823 0.532201 -0.262805
v 0.855823 1.459282 -0.574741
v 0.855823 0.345844 -0.427438
v 0.855823 0.003581 -0.553078
v 0.855823 0.007913 0.486708
v 0.855823 0.241865 0.430386
v 0.855823 0.423828 0.417389
vn 1.0000 0.0026 0.0057
vn -0.9999 -0.0113 -0.0028
vn -0.0001 -1.0000 -0.0032
vn -0.0001 -1.0000 0.0032
vn 0.0003 -0.2588 -0.9659
vn -0.0002 0.7071 0.7071
vn 0.0003 0.7071 -0.7071
vn -0.0003 0.2588 0.9659
vn -0.0004 -0.2588 0.9659
vn 0.0003 -0.2992 -0.9542
vn 0.0002 0.9774 -0.2113
vn -0.0000 0.9239 0.3826
vn -0.0003 0.3827 0.9239
vn -0.0003 0.2934 0.9560
vn 0.0001 0.9951 -0.0989
vn -0.0002 0.6402 0.7682
vn 0.0004 0.2249 -0.9744
vn 0.0004 0.3446 -0.9387
vn -0.0001 -1.0000 0.0042
vn -0.0003 0.2341 0.9722
vn -0.0003 0.0712 0.9975
vn -0.0003 0.2888 0.9574
vn 0.0002 -0.7071 -0.7071
vn -0.0003 -0.7071 0.7071
vn 0.0004 0.2588 -0.9659
vn 1.0000 0.0000 0.0000
vn 1.0000 -0.0039 0.0004
vn 0.9999 -0.0083 0.0089
vn 0.8172 0.4685 -0.3356
vn 0.9999 -0.0171 0.0000
vn 0.9999 0.0113 0.0028
vn 1.0000 0.0007 0.0030
vn 1.0000 -0.0012 -0.0021
vn -1.0000 0.0000 0.0000
vn -0.9999 0.0171 -0.0000
vn -1.0000 -0.0007 -0.0030
vn -1.0000 0.0039 -0.0004
vn -0.8173 -0.4685 0.3356
vn -1.0000 -0.0026 -0.0057
vn -1.0000 0.0012 0.0021
vn -0.9999 0.0083 -0.0089
usemtl Concrete
s off
f 74//43 59//43 57//43
f 82//44 85//44 96//44
f 59//45 82//45 83//45
f 59//46 81//46 57//46
f 61//47 84//47 85//47
f 64//48 86//48 62//48
f 63//49 89//49 65//49
f 66//50 88//50 64//50
f 67//51 90//51 66//51
f 68//52 100//52 92//52
f 69//53 99//53 75//53
f 71//54 94//54 95//54
f 72//55 95//55 96//55
f 73//56 98//56 74//56
f 74//57 94//57 70//57
f 75//58 97//58 73//58
f 69//59 92//59 93//59
f 77//60 100//60 76//60
f 63//61 102//61 87//61
f 79//62 102//62 78//62
f 80//63 103//63 79//63
f 72//64 104//64 80//64
f 58//65 85//65 82//65
f 57//66 91//66 67//66
f 60//67 89//67 84//67
f 77//61 86//61 101//61
f 76//68 68//68 74//68
f 69//68 75//68 68//68
f 74//69 70//69 59//69
f 75//68 73//68 68//68
f 68//68 73//68 74//68
f 70//70 72//70 58//70
f 72//71 80//71 61//71
f 79//68 78//68 60//68
f 78//68 63//68 65//68
f 71//72 72//72 70//72
f 77//68 76//68 66//68
f 64//68 62//68 77//68
f 66//68 64//68 77//68
f 78//68 65//68 60//68
f 79//68 60//68 61//68
f 66//68 76//68 67//68
f 67//68 76//68 74//68
f 79//68 61//68 80//68
f 72//73 61//73 58//73
f 57//74 67//74 74//74
f 70//75 58//75 59//75
f 93//76 92//76 99//76
f 101//76 86//76 88//76
f 101//76 88//76 90//76
f 99//76 92//76 97//76
f 100//76 101//76 90//76
f 100//76 90//76 91//76
f 97//76 92//76 98//76
f 95//77 94//77 96//77
f 98//76 92//76 100//76
f 100//76 91//76 98//76
f 91//78 81//78 98//78
f 94//79 98//79 83//79
f 104//80 96//80 85//80
f 87//76 102//76 89//76
f 103//76 104//76 85//76
f 98//81 81//81 83//81
f 94//82 83//82 82//82
f 89//76 102//76 84//76
f 84//76 102//76 103//76
f 96//83 94//83 82//83
f 85//76 84//76 103//76
f 59//45 58//45 82//45
f 59//46 83//46 81//46
f 61//47 60//47 84//47
f 64//48 88//48 86//48
f 63//49 87//49 89//49
f 66//50 90//50 88//50
f 67//51 91//51 90//51
f 68//52 76//52 100//52
f 69//53 93//53 99//53
f 71//54 70//54 94//54
f 72//55 71//55 95//55
f 73//56 97//56 98//56
f 74//57 98//57 94//57
f 75//58 99//58 97//58
f 69//59 68//59 92//59
f 77//60 101//60 100//60
f 63//61 78//61 102//61
f 79//62 103//62 102//62
f 80//63 104//63 103//63
f 72//64 96//64 104//64
f 58//65 61//65 85//65
f 57//66 81//66 91//66
f 60//67 65//67 89//67
f 77//61 62//61 86//61
o Diff_Circle
v -0.849787 0.328117 -0.117323
v -0.850164 0.328119 0.096391
v -0.850392 0.328461 -0.010466
v -0.849497 0.143032 0.203248
v -0.849497 0.249890 0.174615
v -0.849497 0.005187 -0.164561
v -0.849497 0.006476 0.144918
v -0.849497 0.036174 -0.195548
v -0.849497 0.036174 0.174616
v -0.849497 0.143032 -0.224180
v -0.849497 0.249890 -0.195548
v -0.849497 1.368288 -0.747997
v -0.849497 1.424610 -0.735000
v -0.849497 0.584115 0.259792
v -0.850282 0.538291 0.370438
v -0.852179 0.427661 0.416269
v -0.849497 1.407280 -0.531375
v -0.849497 0.532188 -0.262764
v -0.849497 1.459269 -0.574700
v -0.849497 0.345831 -0.427397
v -0.849497 0.003568 -0.553038
v -0.849497 0.007900 0.486749
v -0.849497 0.241852 0.430427
v -0.849497 0.423815 0.417430
v -0.971687 0.328130 -0.117364
v -0.972065 0.328132 0.096350
v -0.972293 0.328474 -0.010507
v -0.971398 0.143045 0.203207
v -0.971398 0.249903 0.174575
v -0.971398 0.005200 -0.164602
v -0.971398 0.006489 0.144877
v -0.971398 0.036187 -0.195589
v -0.971398 0.036187 0.174575
v -0.971398 0.143045 -0.224221
v -0.971398 0.249903 -0.195589
v -0.971398 1.368301 -0.748038
v -0.971398 1.424623 -0.735041
v -0.971398 0.584129 0.259751
v -0.972183 0.538304 0.370397
v -0.974079 0.427674 0.416228
v -0.971398 1.407293 -0.531416
v -0.971398 0.532201 -0.262805
v -0.971398 1.459282 -0.574741
v -0.971398 0.345844 -0.427438
v -0.971398 0.003581 -0.553078
v -0.971398 0.007913 0.486708
v -0.971398 0.241865 0.430386
v -0.971398 0.423828 0.417389
vn 1.0000 0.0026 0.0057
vn -0.9999 -0.0113 -0.0028
vn -0.0001 -1.0000 -0.0032
vn -0.0001 -1.0000 0.0032
vn 0.0003 -0.2588 -0.9659
vn -0.0002 0.7071 0.7071
vn 0.0003 0.7071 -0.7071
vn -0.0003 0.2588 0.9659
vn -0.0004 -0.2588 0.9659
vn 0.0003 -0.2992 -0.9542
vn 0.0002 0.9774 -0.2113
vn -0.0000 0.9239 0.3826
vn -0.0003 0.3827 0.9239
vn -0.0003 0.2934 0.9560
vn 0.0001 0.9951 -0.0989
vn -0.0002 0.6402 0.7682
vn 0.0004 0.2249 -0.9744
vn 0.0004 0.3446 -0.9387
vn -0.0001 -1.0000 0.0042
vn -0.0003 0.2341 0.9722
vn -0.0003 0.0712 0.9975
vn -0.0003 0.2888 0.9574
vn 0.0002 -0.7071 -0.7071
vn -0.0003 -0.7071 0.7071
vn 0.0004 0.2588 -0.9659
vn 1.0000 0.0000 0.0000
vn 1.0000 -0.0039 0.0004
vn 0.9999 -0.0083 0.0089
vn 0.8172 0.4685 -0.3356
vn 0.9999 -0.0171 0.0000
vn 0.9999 0.0113 0.0028
vn 1.0000 0.0007 0.0030
vn 1.0000 -0.0012 -0.0021
vn -1.0000 0.0000 0.0000
vn -0.9999 0.0171 -0.0000
vn -1.0000 -0.0007 -0.0030
vn -1.0000 0.0039 -0.0004
vn -0.8173 -0.4685 0.3356
vn -1.0000 -0.0026 -0.0057
vn -1.0000 0.0012 0.0021
vn -0.9999 0.0083 -0.0089
usemtl Concrete
s off
f 122//84 107//84 105//84
f 130//85 133//85 144//85
f 107//86 130//86 131//86
f 107//87 129//87 105//87
f 109//88 132//88 133//88
f 112//89 134//89 110//89
f 111//90 137//90 113//90
f 114//91 136//91 112//91
f 115//92 138//92 114//92
f 116//93 148//93 140//93
f 117//94 147//94 123//94
f 119//95 142//95 143//95
f 120//96 143//96 144//96
f 121//97 146//97 122//97
f 122//98 142//98 118//98
f 123//99 145//99 121//99
f 117//100 140//100 141//100
f 125//101 148//101 124//101
f 111//102 150//102 135//102
f 127//103 150//103 126//103
f 128//104 151//104 127//104
f 120//105 152//105 128//105
f 106//106 133//106 130//106
f 105//107 139//107 115//107
f 108//108 137//108 132//108
f 125//102 134//102 149//102
f 124//109 116//109 122//109
f 117//109 123//109 116//109
f 122//110 118//110 107//110
f 123//109 121//109 116//109
f 116//109 121//109 122//109
f 118//111 120//111 106//111
f 120//112 128//112 109//112
f 127//109 126//109 108//109
f 126//109 111//109 113//109
f 119//113 120//113 118//113
f 125//109 124//109 114//109
f 112//109 110//109 125//109
f 114//109 112//109 125//109
f 126//109 113//109 108//109
f 127//109 108//109 109//109
f 114//109 124//109 115//109
f 115//109 124//109 122//109
f 127//109 109//109 128//109
f 120//114 109//114 106//114
f 105//115 115//115 122//115
f 118//116 106//116 107//116
f 141//117 140//117 147//117
f 149//117 134//117 136//117
f 149//117 136//117 138//117
f 147//117 140//117 145//117
f 148//117 149//117 138//117
f 148//117 138//117 139//117
f 145//117 140//117 146//117
f 143//118 142//118 144//118
f 146//117 140//117 148//117
f 148//117 139//117 146//117
f 139//119 129//119 146//119
f 142//120 146//120 131//120
f 152//121 144//121 133//121
f 135//117 150//117 137//117
f 151//117 152//117 133//117
f 146//122 129//122 131//122
f 142//123 131//123 130//123
f 137//117 150//117 132//117
f 132//117 150//117 151//117
f 144//124 142//124 130//124
f 133//117 132//117 151//117
f 107//86 106//86 130//86
f 107//87 131//87 129//87
f 109//88 108//88 132//88
f 112//89 136//89 134//89
f 111//90 135//90 137//90
f 114//91 138//91 136//91
f 115//92 139//92 138//92
f 116//93 124//93 148//93
f 117//94 141//94 147//94
f 119//95 118//95 142//95
f 120//96 119//96 143//96
f 121//97 145//97 146//97
f 122//98 146//98 142//98
f 123//99 147//99 145//99
f 117//100 116//100 140//100
f 125//101 149//101 148//101
f 111//102 126//102 150//102
f 127//103 151//103 150//103
f 128//104 152//104 151//104
f 120//105 144//105 152//105
f 106//106 109//106 133//106
f 105//107 129//107 139//107
f 108//108 113//108 137//108
f 125//102 110//102 134//102
