# Blender v2.79 (sub 0) OBJ File: 'KingOfDiamonds.blend'
# www.blender.org
mtllib KingOfDiamonds.mtl
o Cube
v 0.000231 0.000353 -0.047482
v 0.000231 0.009845 -0.054239
v 0.000217 0.000353 -0.050860
v 0.000225 0.002343 -0.052822
v 0.000217 0.005099 -0.054239
v 0.000231 0.005099 -0.050860
v 0.000231 0.009845 0.054239
v 0.000231 0.000353 0.047482
v 0.000217 0.005099 0.054239
v 0.000225 0.002343 0.052822
v 0.000217 0.000353 0.050860
v 0.000231 0.005099 0.050860
v -0.000231 0.009845 0.054239
v -0.000231 0.000353 0.047482
v -0.000231 0.005099 0.050860
v -0.000225 0.002343 0.052822
v -0.000217 0.000353 0.050860
v -0.000217 0.005099 0.054239
v -0.000231 0.000353 -0.047482
v -0.000231 0.009845 -0.054239
v -0.000217 0.000353 -0.050860
v -0.000225 0.002343 -0.052822
v -0.000231 0.005099 -0.050860
v -0.000217 0.005099 -0.054239
v 0.000231 0.152756 -0.047482
v 0.000231 0.143263 -0.054239
v 0.000217 0.152756 -0.050860
v 0.000225 0.150765 -0.052822
v 0.000231 0.148009 -0.050860
v 0.000217 0.148009 -0.054239
v 0.000231 0.143263 0.054239
v 0.000231 0.152756 0.047482
v 0.000231 0.148009 0.050860
v 0.000225 0.150765 0.052822
v 0.000217 0.152756 0.050860
v 0.000217 0.148009 0.054239
v -0.000231 0.143263 0.054239
v -0.000231 0.152756 0.047482
v -0.000217 0.148009 0.054239
v -0.000225 0.150765 0.052822
v -0.000217 0.152756 0.050860
v -0.000231 0.148009 0.050860
v -0.000231 0.152756 -0.047482
v -0.000231 0.143263 -0.054239
v -0.000217 0.152756 -0.050860
v -0.000225 0.150765 -0.052822
v -0.000217 0.148009 -0.054239
v -0.000231 0.148009 -0.050860
vt 0.764323 0.874494
vt 0.234952 0.874494
vt 0.234952 0.129618
vt 0.764323 0.129618
vt 0.781867 0.129675
vt 0.781904 0.154357
vt 0.764288 0.104939
vt 0.746741 0.104879
vt 0.234972 0.104939
vt 0.252533 0.104879
vt 0.217392 0.129675
vt 0.217370 0.154357
vt 0.781867 0.874472
vt 0.781904 0.849755
vt 0.764288 0.899209
vt 0.746741 0.899233
vt 0.234972 0.899209
vt 0.252533 0.899233
vt 0.217393 0.874472
vt 0.217370 0.849755
vt 0.774516 0.115278
vt 0.224752 0.115278
vt 0.774516 0.888848
vt 0.224752 0.888848
vt 0.734672 0.000786
vt 0.734672 0.031897
vt 0.719105 0.000786
vt 0.750240 0.031897
vt 0.750240 0.063009
vt 0.250378 0.031897
vt 0.265945 0.031897
vt 0.250378 0.063009
vt 0.265945 0.000786
vt 0.281513 0.000786
vt 0.734672 0.968639
vt 0.734672 0.999750
vt 0.719105 0.999750
vt 0.750240 0.968639
vt 0.750240 0.937528
vt 0.265945 0.968639
vt 0.250378 0.968639
vt 0.250378 0.937528
vt 0.265945 0.999750
vt 0.281512 0.999750
vt 0.743711 0.013833
vt 0.256906 0.013833
vt 0.743711 0.986703
vt 0.256906 0.986703
vn -1.0000 -0.0000 0.0000
vn -1.0000 -0.0030 0.0043
vn -1.0000 -0.0030 -0.0043
vn -1.0000 0.0030 0.0043
vn -1.0000 0.0030 -0.0043
vn -1.0000 0.0008 0.0043
vn -1.0000 -0.0030 -0.0012
vn -1.0000 -0.0030 0.0012
vn -1.0000 0.0008 -0.0043
vn -1.0000 -0.0008 0.0043
vn -1.0000 0.0030 -0.0012
vn -1.0000 0.0030 0.0012
vn -1.0000 -0.0008 -0.0043
vn 1.0000 -0.0030 -0.0043
vn 1.0000 -0.0030 0.0043
vn 1.0000 0.0030 -0.0043
vn 1.0000 0.0030 0.0043
vn 1.0000 -0.0000 -0.0000
vn 1.0000 -0.0030 0.0012
vn 1.0000 0.0008 -0.0043
vn 1.0000 0.0008 0.0043
vn 1.0000 -0.0030 -0.0012
vn 1.0000 0.0030 0.0012
vn 1.0000 -0.0008 -0.0043
vn 1.0000 -0.0008 0.0043
vn 1.0000 0.0030 -0.0012
usemtl Card
s off
f 42/1/1 48/2/1 23/3/1
f 15/4/2 18/5/2 13/6/2
f 17/7/2 15/4/2 14/8/2
f 23/3/3 21/9/3 19/10/3
f 24/11/3 23/3/3 20/12/3
f 39/13/4 42/1/4 37/14/4
f 42/1/4 41/15/4 38/16/4
f 45/17/5 48/2/5 43/18/5
f 48/2/5 47/19/5 44/20/5
f 19/10/1 14/8/1 15/4/1
f 15/4/1 13/6/1 37/14/1
f 42/1/1 38/16/1 43/18/1
f 15/4/1 37/14/1 42/1/1
f 23/3/1 19/10/1 15/4/1
f 44/20/1 20/12/1 23/3/1
f 42/1/1 43/18/1 48/2/1
f 48/2/1 44/20/1 23/3/1
f 23/3/1 15/4/1 42/1/1
f 15/4/6 16/21/6 18/5/6
f 17/7/7 16/21/7 15/4/7
f 23/3/8 22/22/8 21/9/8
f 24/11/9 22/22/9 23/3/9
f 39/13/10 40/23/10 42/1/10
f 42/1/11 40/23/11 41/15/11
f 45/17/12 46/24/12 48/2/12
f 48/2/13 46/24/13 47/19/13
usemtl Card_KingOfDiamonds.png
f 3/25/14 6/26/14 1/27/14
f 6/26/14 5/28/14 2/29/14
f 9/30/15 12/31/15 7/32/15
f 12/31/15 11/33/15 8/34/15
f 29/35/16 27/36/16 25/37/16
f 30/38/16 29/35/16 26/39/16
f 33/40/17 36/41/17 31/42/17
f 35/43/17 33/40/17 32/44/17
f 6/26/18 29/35/18 33/40/18
f 3/25/19 4/45/19 6/26/19
f 6/26/20 4/45/20 5/28/20
f 9/30/21 10/46/21 12/31/21
f 12/31/22 10/46/22 11/33/22
f 29/35/23 28/47/23 27/36/23
f 30/38/24 28/47/24 29/35/24
f 33/40/25 34/48/25 36/41/25
f 35/43/26 34/48/26 33/40/26
f 8/34/18 1/27/18 6/26/18
f 6/26/18 2/29/18 26/39/18
f 29/35/18 25/37/18 32/44/18
f 6/26/18 26/39/18 29/35/18
f 12/31/18 8/34/18 6/26/18
f 31/42/18 7/32/18 12/31/18
f 32/44/18 33/40/18 29/35/18
f 33/40/18 31/42/18 12/31/18
f 6/26/18 33/40/18 12/31/18
