# Blender v2.78 (sub 0) OBJ File: 'Nerka.blend'
# www.blender.org
mtllib Nerka.mtl
o Cube.004_Cube.011
v -10.000000 0.000000 9.000000
v -10.000000 10.000000 9.000000
v 10.000000 0.000000 9.000000
v 10.000000 10.000000 9.000000
v -10.000000 0.000000 11.000000
v -10.000000 10.000000 11.000000
v 10.000000 0.000000 11.000000
v 10.000000 10.000000 11.000000
vt 4.0000 0.0000
vt 0.0000 4.0000
vt 0.0000 0.0000
vt 4.0000 4.0000
vt 0.0000 0.0000
vt 0.0000 0.0000
vt 0.0000 0.0000
vt 0.0000 0.0000
vt 0.0000 0.0000
vt 0.0000 0.0000
vt 0.0000 0.0000
vn 0.0000 0.0000 -1.0000
vn 1.0000 0.0000 0.0000
vn 0.0000 0.0000 1.0000
vn -1.0000 0.0000 0.0000
vn 0.0000 -1.0000 0.0000
vn 0.0000 1.0000 0.0000
usemtl Wall
s off
f 2/1/1 3/2/1 1/3/1
f 2/1/1 4/4/1 3/2/1
usemtl Wall_NONE
f 4/5/2 7/6/2 3/7/2
f 8/8/3 5/9/3 7/6/3
f 6/10/4 1/3/4 5/9/4
f 7/6/5 1/3/5 3/7/5
f 4/5/6 6/10/6 8/8/6
f 4/5/2 8/8/2 7/6/2
f 8/8/3 6/10/3 5/9/3
f 6/10/4 2/11/4 1/3/4
f 7/6/5 5/9/5 1/3/5
f 4/5/6 2/11/6 6/10/6
o Cube.003_Cube.010
v 10.000000 0.000000 -9.000000
v 10.000000 10.000000 -9.000000
v -10.000000 0.000000 -9.000000
v -10.000000 10.000000 -9.000000
v 10.000000 0.000000 -11.000000
v 10.000000 10.000000 -11.000000
v -10.000000 0.000000 -11.000000
v -10.000000 10.000000 -11.000000
vt 4.0000 0.0000
vt 0.0000 4.0000
vt 0.0000 0.0000
vt 4.0000 4.0000
vt 0.0000 0.0000
vt 0.0000 0.0000
vt 0.0000 0.0000
vt 0.0000 0.0000
vt 0.0000 0.0000
vt 0.0000 0.0000
vt 0.0000 0.0000
vn 0.0000 0.0000 1.0000
vn -1.0000 0.0000 0.0000
vn 0.0000 0.0000 -1.0000
vn 1.0000 0.0000 0.0000
vn 0.0000 -1.0000 0.0000
vn 0.0000 1.0000 0.0000
usemtl Wall
s off
f 10/12/7 11/13/7 9/14/7
f 10/12/7 12/15/7 11/13/7
usemtl Wall_NONE
f 12/16/8 15/17/8 11/18/8
f 16/19/9 13/20/9 15/17/9
f 14/21/10 9/14/10 13/20/10
f 15/17/11 9/14/11 11/18/11
f 12/16/12 14/21/12 16/19/12
f 12/16/8 16/19/8 15/17/8
f 16/19/9 14/21/9 13/20/9
f 14/21/10 10/22/10 9/14/10
f 15/17/11 13/20/11 9/14/11
f 12/16/12 10/22/12 14/21/12
o Cube.002_Cube.006
v -10.000001 0.000000 -10.000000
v -10.000001 10.000000 -10.000000
v -9.999999 0.000000 10.000000
v -9.999999 10.000000 10.000000
v -12.000001 0.000000 -10.000000
v -12.000001 10.000000 -10.000000
v -11.999999 0.000000 10.000000
v -11.999999 10.000000 10.000000
vt 4.0000 0.0000
vt 0.0000 4.0000
vt 0.0000 0.0000
vt 4.0000 4.0000
vt 0.0000 0.0000
vt 0.0000 0.0000
vt 0.0000 0.0000
vt 0.0000 0.0000
vt 0.0000 0.0000
vt 0.0000 0.0000
vt 0.0000 0.0000
vn 1.0000 0.0000 -0.0000
vn 0.0000 0.0000 1.0000
vn -1.0000 0.0000 0.0000
vn 0.0000 0.0000 -1.0000
vn 0.0000 -1.0000 0.0000
vn 0.0000 1.0000 0.0000
usemtl Wall
s off
f 18/23/13 19/24/13 17/25/13
f 18/23/13 20/26/13 19/24/13
usemtl Wall_NONE
f 20/27/14 23/28/14 19/29/14
f 24/30/15 21/31/15 23/28/15
f 22/32/16 17/25/16 21/31/16
f 23/28/17 17/25/17 19/29/17
f 20/27/18 22/32/18 24/30/18
f 20/27/14 24/30/14 23/28/14
f 24/30/15 22/32/15 21/31/15
f 22/32/16 18/33/16 17/25/16
f 23/28/17 21/31/17 17/25/17
f 20/27/18 18/33/18 22/32/18
o Cube.001_Cube.003
v 10.000000 0.000000 10.000000
v 10.000000 10.000000 10.000000
v 10.000000 0.000000 -10.000000
v 10.000000 10.000000 -10.000000
v 12.000000 0.000000 10.000000
v 12.000000 10.000000 10.000000
v 12.000000 0.000000 -10.000000
v 12.000000 10.000000 -10.000000
vt 4.0000 0.0000
vt 0.0000 4.0000
vt 0.0000 0.0000
vt 4.0000 4.0000
vt 0.0000 0.0000
vt 0.0000 0.0000
vt 0.0000 0.0000
vt 0.0000 0.0000
vt 0.0000 0.0000
vt 0.0000 0.0000
vt 0.0000 0.0000
vn -1.0000 0.0000 0.0000
vn 0.0000 0.0000 -1.0000
vn 1.0000 0.0000 0.0000
vn 0.0000 0.0000 1.0000
vn 0.0000 -1.0000 0.0000
vn 0.0000 1.0000 0.0000
usemtl Wall
s off
f 26/34/19 27/35/19 25/36/19
f 26/34/19 28/37/19 27/35/19
usemtl Wall_NONE
f 28/38/20 31/39/20 27/40/20
f 32/41/21 29/42/21 31/39/21
f 30/43/22 25/36/22 29/42/22
f 31/39/23 25/36/23 27/40/23
f 28/38/24 30/43/24 32/41/24
f 28/38/20 32/41/20 31/39/20
f 32/41/21 30/43/21 29/42/21
f 30/43/22 26/44/22 25/36/22
f 31/39/23 29/42/23 25/36/23
f 28/38/24 26/44/24 30/43/24
o Cube.005_Cube.001
v -10.000000 10.000000 10.000000
v -10.000000 12.000000 10.000000
v -10.000000 10.000000 -10.000000
v -10.000000 12.000000 -10.000000
v 10.000000 10.000000 10.000000
v 10.000000 12.000000 10.000000
v 10.000000 10.000000 -10.000000
v 10.000000 12.000000 -10.000000
vt 10.0000 0.0000
vt 0.0000 10.0000
vt 0.0000 0.0000
vt 10.0000 10.0000
vt 0.0000 0.0000
vt 0.0000 0.0000
vt 0.0000 0.0000
vt 0.0000 0.0000
vt 0.0000 0.0000
vt 0.0000 0.0000
vt 0.0000 0.0000
vn 0.0000 -1.0000 0.0000
vn -1.0000 0.0000 0.0000
vn 0.0000 0.0000 -1.0000
vn 1.0000 0.0000 0.0000
vn 0.0000 0.0000 1.0000
vn 0.0000 1.0000 0.0000
usemtl Ceiling
s off
f 39/45/25 33/46/25 35/47/25
f 39/45/25 37/48/25 33/46/25
usemtl Ceiling_NONE
f 34/49/26 35/47/26 33/50/26
f 36/51/27 39/52/27 35/47/27
f 40/53/28 37/54/28 39/52/28
f 38/55/29 33/50/29 37/54/29
f 36/51/30 38/55/30 40/53/30
f 34/49/26 36/51/26 35/47/26
f 36/51/27 40/53/27 39/52/27
f 40/53/28 38/55/28 37/54/28
f 38/55/29 34/49/29 33/50/29
f 36/51/30 34/49/30 38/55/30
o Cube
v -10.000000 -2.000000 10.000000
v -10.000000 0.000000 10.000000
v -10.000000 -2.000000 -10.000000
v -10.000000 0.000000 -10.000000
v 10.000000 -2.000000 10.000000
v 10.000000 0.000000 10.000000
v 10.000000 -2.000000 -10.000000
v 10.000000 0.000000 -10.000000
vt 10.0000 0.0000
vt 0.0000 10.0000
vt 0.0000 0.0000
vt 10.0000 10.0000
vt 0.0000 0.0000
vt 0.0000 0.0000
vt 0.0000 0.0000
vt 0.0000 0.0000
vt 0.0000 0.0000
vt 0.0000 0.0000
vt 0.0000 0.0000
vn 0.0000 1.0000 0.0000
vn -1.0000 0.0000 0.0000
vn 0.0000 0.0000 -1.0000
vn 1.0000 0.0000 0.0000
vn 0.0000 0.0000 1.0000
vn 0.0000 -1.0000 0.0000
usemtl Floor
s off
f 44/56/31 46/57/31 48/58/31
f 44/56/31 42/59/31 46/57/31
usemtl Floor_NONE
f 42/60/32 43/61/32 41/62/32
f 44/63/33 47/64/33 43/61/33
f 48/58/34 45/65/34 47/64/34
f 46/66/35 41/62/35 45/65/35
f 47/64/36 41/62/36 43/61/36
f 42/60/32 44/63/32 43/61/32
f 44/63/33 48/58/33 47/64/33
f 48/58/34 46/66/34 45/65/34
f 46/66/35 42/60/35 41/62/35
f 47/64/36 45/65/36 41/62/36
