# Blender v2.78 (sub 0) OBJ File: 'Switch.blend'
# www.blender.org
mtllib Switch.mtl
o Cylinder.001
v 0.000000 0.046113 -0.132784
v 0.025905 0.046113 -0.130233
v 0.050814 0.046113 -0.122676
v 0.073771 0.046113 -0.110406
v 0.093893 0.046113 -0.093893
v 0.110406 0.046113 -0.073771
v 0.122676 0.046113 -0.050814
v 0.130233 0.046113 -0.025905
v 0.132784 0.046113 -0.000000
v 0.130233 0.046113 0.025905
v 0.122676 0.046113 0.050814
v 0.110406 0.046113 0.073771
v 0.093893 0.046113 0.093893
v 0.073771 0.046113 0.110406
v 0.050814 0.046113 0.122676
v 0.025905 0.046113 0.130233
v -0.000000 0.046113 0.132784
v -0.025905 0.046113 0.130233
v -0.050814 0.046113 0.122676
v -0.073771 0.046113 0.110406
v -0.093893 0.046113 0.093892
v -0.110406 0.046113 0.073771
v -0.122677 0.046113 0.050814
v -0.130233 0.046113 0.025905
v -0.132784 0.046113 -0.000000
v -0.130233 0.046113 -0.025905
v -0.122676 0.046113 -0.050814
v -0.110406 0.046113 -0.073771
v -0.093892 0.046113 -0.093893
v -0.073771 0.046113 -0.110406
v -0.050814 0.046113 -0.122677
v -0.025905 0.046113 -0.130233
vn 0.0000 1.0000 0.0000
usemtl Button_Top
s 1
f 19//1 11//1 3//1
f 3//1 2//1 1//1
f 1//1 32//1 3//1
f 31//1 30//1 27//1
f 29//1 28//1 27//1
f 27//1 26//1 25//1
f 25//1 24//1 27//1
f 23//1 22//1 21//1
f 21//1 20//1 19//1
f 19//1 18//1 17//1
f 17//1 16//1 19//1
f 15//1 14//1 13//1
f 13//1 12//1 11//1
f 11//1 10//1 9//1
f 9//1 8//1 7//1
f 7//1 6//1 5//1
f 5//1 4//1 3//1
f 3//1 32//1 31//1
f 30//1 29//1 27//1
f 27//1 24//1 23//1
f 23//1 21//1 19//1
f 19//1 16//1 15//1
f 15//1 13//1 11//1
f 11//1 9//1 7//1
f 7//1 5//1 11//1
f 3//1 31//1 19//1
f 27//1 23//1 19//1
f 19//1 15//1 11//1
f 11//1 5//1 3//1
f 31//1 27//1 19//1
o Cylinder
v 0.000000 -0.000079 -0.132784
v 0.000000 0.046113 -0.132784
v 0.025905 -0.000079 -0.130233
v 0.025905 0.046113 -0.130233
v 0.050814 -0.000079 -0.122676
v 0.050814 0.046113 -0.122676
v 0.073771 -0.000079 -0.110406
v 0.073771 0.046113 -0.110406
v 0.093893 -0.000079 -0.093893
v 0.093893 0.046113 -0.093893
v 0.110406 -0.000079 -0.073771
v 0.110406 0.046113 -0.073771
v 0.122676 -0.000079 -0.050814
v 0.122676 0.046113 -0.050814
v 0.130233 -0.000079 -0.025905
v 0.130233 0.046113 -0.025905
v 0.132784 -0.000079 -0.000000
v 0.132784 0.046113 -0.000000
v 0.130233 -0.000079 0.025905
v 0.130233 0.046113 0.025905
v 0.122676 -0.000079 0.050814
v 0.122676 0.046113 0.050814
v 0.110406 -0.000079 0.073771
v 0.110406 0.046113 0.073771
v 0.093893 -0.000079 0.093893
v 0.093893 0.046113 0.093893
v 0.073771 -0.000079 0.110406
v 0.073771 0.046113 0.110406
v 0.050814 -0.000079 0.122676
v 0.050814 0.046113 0.122676
v 0.025905 -0.000079 0.130233
v 0.025905 0.046113 0.130233
v -0.000000 -0.000079 0.132784
v -0.000000 0.046113 0.132784
v -0.025905 -0.000079 0.130233
v -0.025905 0.046113 0.130233
v -0.050814 -0.000079 0.122676
v -0.050814 0.046113 0.122676
v -0.073771 -0.000079 0.110406
v -0.073771 0.046113 0.110406
v -0.093893 -0.000079 0.093892
v -0.093893 0.046113 0.093892
v -0.110406 -0.000079 0.073771
v -0.110406 0.046113 0.073771
v -0.122677 -0.000079 0.050814
v -0.122677 0.046113 0.050814
v -0.130233 -0.000079 0.025905
v -0.130233 0.046113 0.025905
v -0.132784 -0.000079 -0.000000
v -0.132784 0.046113 -0.000000
v -0.130233 -0.000079 -0.025905
v -0.130233 0.046113 -0.025905
v -0.122676 -0.000079 -0.050814
v -0.122676 0.046113 -0.050814
v -0.110406 -0.000079 -0.073771
v -0.110406 0.046113 -0.073771
v -0.093892 -0.000079 -0.093893
v -0.093892 0.046113 -0.093893
v -0.073771 -0.000079 -0.110406
v -0.073771 0.046113 -0.110406
v -0.050814 -0.000079 -0.122677
v -0.050814 0.046113 -0.122677
v -0.025905 -0.000079 -0.130233
v -0.025905 0.046113 -0.130233
vn 0.0000 0.6857 -0.7279
vn 0.1420 -0.6857 -0.7139
vn 0.0000 -0.6857 -0.7279
vn 0.1420 0.6857 -0.7139
vn 0.2785 -0.6857 -0.6725
vn 0.2785 0.6857 -0.6725
vn 0.4044 -0.6857 -0.6052
vn 0.4044 0.6857 -0.6052
vn 0.5147 -0.6857 -0.5147
vn 0.5147 0.6857 -0.5147
vn 0.6052 -0.6857 -0.4044
vn 0.6052 0.6857 -0.4044
vn 0.6725 -0.6857 -0.2785
vn 0.6725 0.6857 -0.2785
vn 0.7139 -0.6857 -0.1420
vn 0.7139 0.6857 -0.1420
vn 0.7279 -0.6857 0.0000
vn 0.7279 0.6857 0.0000
vn 0.7139 -0.6857 0.1420
vn 0.7139 0.6857 0.1420
vn 0.6725 -0.6857 0.2785
vn 0.6725 0.6857 0.2785
vn 0.6052 -0.6857 0.4044
vn 0.6052 0.6857 0.4044
vn 0.5147 -0.6857 0.5147
vn 0.5147 0.6857 0.5147
vn 0.4044 -0.6857 0.6052
vn 0.4044 0.6857 0.6052
vn 0.2785 -0.6857 0.6725
vn 0.2785 0.6857 0.6725
vn 0.1420 -0.6857 0.7139
vn 0.1420 0.6857 0.7139
vn 0.0000 -0.6857 0.7279
vn 0.0000 0.6857 0.7279
vn -0.1420 -0.6857 0.7139
vn -0.1420 0.6857 0.7139
vn -0.2785 -0.6857 0.6725
vn -0.2785 0.6857 0.6725
vn -0.4044 -0.6857 0.6052
vn -0.4044 0.6857 0.6052
vn -0.5147 -0.6857 0.5147
vn -0.5147 0.6857 0.5147
vn -0.6052 -0.6857 0.4044
vn -0.6052 0.6857 0.4044
vn -0.6725 -0.6857 0.2785
vn -0.6725 0.6857 0.2785
vn -0.7139 -0.6857 0.1420
vn -0.7139 0.6857 0.1420
vn -0.7279 -0.6857 0.0000
vn -0.7279 0.6857 0.0000
vn -0.7139 -0.6857 -0.1420
vn -0.7139 0.6857 -0.1420
vn -0.6725 -0.6857 -0.2785
vn -0.6725 0.6857 -0.2785
vn -0.6052 -0.6857 -0.4044
vn -0.6052 0.6857 -0.4044
vn -0.5147 -0.6857 -0.5147
vn -0.5147 0.6857 -0.5147
vn -0.4044 -0.6857 -0.6052
vn -0.4044 0.6857 -0.6052
vn -0.2785 -0.6857 -0.6725
vn -0.2785 0.6857 -0.6725
vn -0.1420 -0.6857 -0.7139
vn -0.1420 0.6857 -0.7139
usemtl Button_Base
s 1
f 34//2 35//3 33//4
f 36//5 37//6 35//3
f 38//7 39//8 37//6
f 40//9 41//10 39//8
f 42//11 43//12 41//10
f 44//13 45//14 43//12
f 46//15 47//16 45//14
f 48//17 49//18 47//16
f 50//19 51//20 49//18
f 52//21 53//22 51//20
f 54//23 55//24 53//22
f 56//25 57//26 55//24
f 58//27 59//28 57//26
f 60//29 61//30 59//28
f 62//31 63//32 61//30
f 64//33 65//34 63//32
f 66//35 67//36 65//34
f 68//37 69//38 67//36
f 70//39 71//40 69//38
f 72//41 73//42 71//40
f 74//43 75//44 73//42
f 76//45 77//46 75//44
f 78//47 79//48 77//46
f 80//49 81//50 79//48
f 82//51 83//52 81//50
f 84//53 85//54 83//52
f 86//55 87//56 85//54
f 88//57 89//58 87//56
f 90//59 91//60 89//58
f 92//61 93//62 91//60
f 94//63 95//64 93//62
f 96//65 33//4 95//64
f 63//32 79//48 95//64
f 34//2 36//5 35//3
f 36//5 38//7 37//6
f 38//7 40//9 39//8
f 40//9 42//11 41//10
f 42//11 44//13 43//12
f 44//13 46//15 45//14
f 46//15 48//17 47//16
f 48//17 50//19 49//18
f 50//19 52//21 51//20
f 52//21 54//23 53//22
f 54//23 56//25 55//24
f 56//25 58//27 57//26
f 58//27 60//29 59//28
f 60//29 62//31 61//30
f 62//31 64//33 63//32
f 64//33 66//35 65//34
f 66//35 68//37 67//36
f 68//37 70//39 69//38
f 70//39 72//41 71//40
f 72//41 74//43 73//42
f 74//43 76//45 75//44
f 76//45 78//47 77//46
f 78//47 80//49 79//48
f 80//49 82//51 81//50
f 82//51 84//53 83//52
f 84//53 86//55 85//54
f 86//55 88//57 87//56
f 88//57 90//59 89//58
f 90//59 92//61 91//60
f 92//61 94//63 93//62
f 94//63 96//65 95//64
f 96//65 34//2 33//4
f 95//64 33//4 35//3
f 35//3 37//6 95//64
f 39//8 41//10 43//12
f 43//12 45//14 39//8
f 47//16 49//18 51//20
f 51//20 53//22 47//16
f 55//24 57//26 63//32
f 59//28 61//30 63//32
f 63//32 65//34 67//36
f 67//36 69//38 63//32
f 71//40 73//42 79//48
f 75//44 77//46 79//48
f 79//48 81//50 83//52
f 83//52 85//54 79//48
f 87//56 89//58 95//64
f 91//60 93//62 95//64
f 95//64 37//6 39//8
f 39//8 45//14 47//16
f 47//16 53//22 55//24
f 57//26 59//28 63//32
f 63//32 69//38 71//40
f 73//42 75//44 79//48
f 79//48 85//54 87//56
f 89//58 91//60 95//64
f 95//64 39//8 47//16
f 47//16 55//24 95//64
f 63//32 71//40 79//48
f 79//48 87//56 95//64
f 95//64 55//24 63//32
usemtl Button_Top
f 70//39 54//23 38//7
f 38//7 36//5 34//2
f 34//2 96//65 38//7
f 94//63 92//61 86//55
f 90//59 88//57 86//55
f 86//55 84//53 82//51
f 82//51 80//49 86//55
f 78//47 76//45 74//43
f 74//43 72//41 70//39
f 70//39 68//37 66//35
f 66//35 64//33 70//39
f 62//31 60//29 58//27
f 58//27 56//25 54//23
f 54//23 52//21 50//19
f 50//19 48//17 46//15
f 46//15 44//13 42//11
f 42//11 40//9 38//7
f 38//7 96//65 94//63
f 92//61 90//59 86//55
f 86//55 80//49 78//47
f 78//47 74//43 70//39
f 70//39 64//33 62//31
f 62//31 58//27 54//23
f 54//23 50//19 46//15
f 46//15 42//11 54//23
f 38//7 94//63 70//39
f 86//55 78//47 70//39
f 70//39 62//31 54//23
f 54//23 42//11 38//7
f 94//63 86//55 70//39
